# xmcd
#
# Track frame offsets:
#	150
#	19267
#	31692
#	45680
#	68825
#	91837
#	108330
#	129917
#	149277
#	166667
#	176797
#	200445
#	212977
#	225050
#	236917
#	249947
#	260825
#	271582
#	291247
#	304495
#
# Disc length: 4220 seconds
# Revision: 6
# Processed by: cddbd v1.5.2PL0 Copyright (c) Steve Scherf et al.
# Submitted via: dBpowerAMP V12.0
#
DISCID=16107a14
DTITLE=B.B. King - Blues 'N' Jazz/His Best - The Electric B.B. King [MCAD-5881]
DYEAR=1983
DGENRE=Blues
TTITLE0=Inflation Blues [Blues 'N' Jazz LP]
TTITLE1=Broken Heart
TTITLE2=Sell My Monkey
TTITLE3=Heed My Warning
TTITLE4=Teardrops From My Eyes
TTITLE5=Rainbow Riot
TTITLE6=Darlin' You Know I Love You
TTITLE7=Make Love to Me
TTITLE8=I Can't Let You Go
TTITLE9=Tired Of Your Jive [His Best - The Electric B.B. King LP]
TTITLE10=Don't Answer The Door
TTITLE11=The B.B. Jones (from the motion picture "For Love of Ivy")
TTITLE12=All Over Again
TTITLE13=Paying The Cost To Be The Boss
TTITLE14=Think It Over
TTITLE15=I Done Got Wise
TTITLE16=Meet My Happiness
TTITLE17=Sweet Sixteen (live)
TTITLE18=You Put It On Me (from the motion picture "For Love of Ivy")
TTITLE19=I Don't Want You Cuttin' Off Your Hair
EXTD=
EXTT0=
EXTT1=
EXTT2=
EXTT3=
EXTT4=
EXTT5=
EXTT6=
EXTT7=
EXTT8=
EXTT9=
EXTT10=
EXTT11=
EXTT12=
EXTT13=
EXTT14=
EXTT15=
EXTT16=
EXTT17=
EXTT18=
EXTT19=
PLAYORDER=
